REM DIRINDEX 1\2\4,1\2\5,1\2\6,1\3\7,1\3\8
REM DIRNAME folder01,folder02,folder03,folder04,folder05,folder06,folder07,folder08
TITLE ""
FILE "030_Lesson 25_Output_Stage.mp3" MP3
  TRACK 01 AUDIO
    TITLE "0:"
    INDEX 01 00:00:00
  TRACK 02 AUDIO
    TITLE "8:cjc128_3636"
    INDEX 01 00:00:25
  TRACK 03 AUDIO
    TITLE "0:"
    INDEX 01 00:03:35
  TRACK 04 AUDIO
    TITLE "8:cjc128_3637"
    INDEX 01 00:04:01
  TRACK 05 AUDIO
    TITLE "0:"
    INDEX 01 00:06:02
  TRACK 06 AUDIO
    TITLE "7:cjc128_3638"
    INDEX 01 00:06:30
  TRACK 07 AUDIO
    TITLE "0:"
    INDEX 01 00:09:38
  TRACK 08 AUDIO
    TITLE "8:cjc128_3639"
    INDEX 01 00:13:02
  TRACK 09 AUDIO
    TITLE "0:"
    INDEX 01 00:14:70
  TRACK 10 AUDIO
    TITLE "7:cjc128_3640"
    INDEX 01 00:15:54
  TRACK 11 AUDIO
    TITLE "0:"
    INDEX 01 00:18:15
  TRACK 12 AUDIO
    TITLE "8:cjc128_3641"
    INDEX 01 00:21:21
  TRACK 13 AUDIO
    TITLE "0:"
    INDEX 01 00:23:24
  TRACK 14 AUDIO
    TITLE "7:cjc128_3642"
    INDEX 01 00:24:14
  TRACK 15 AUDIO
    TITLE "0:"
    INDEX 01 00:27:59
  TRACK 16 AUDIO
    TITLE "8:cjc128_3643"
    INDEX 01 00:31:65
  TRACK 17 AUDIO
    TITLE "0:"
    INDEX 01 00:33:64
  TRACK 18 AUDIO
    TITLE "7:cjc128_3644"
    INDEX 01 00:34:49
  TRACK 19 AUDIO
    TITLE "0:"
    INDEX 01 00:37:54
  TRACK 20 AUDIO
    TITLE "8:cjc128_3645"
    INDEX 01 00:41:24
  TRACK 21 AUDIO
    TITLE "0:"
    INDEX 01 00:43:17
  TRACK 22 AUDIO
    TITLE "7:cjc128_3646"
    INDEX 01 00:43:68
  TRACK 23 AUDIO
    TITLE "0:"
    INDEX 01 00:46:45
  TRACK 24 AUDIO
    TITLE "8:cjc128_3647"
    INDEX 01 00:49:67
  TRACK 25 AUDIO
    TITLE "0:"
    INDEX 01 00:51:52
  TRACK 26 AUDIO
    TITLE "7:cjc128_3648"
    INDEX 01 00:52:34
  TRACK 27 AUDIO
    TITLE "0:"
    INDEX 01 00:54:62
  TRACK 28 AUDIO
    TITLE "8:cjc128_3649"
    INDEX 01 00:58:13
  TRACK 29 AUDIO
    TITLE "0:"
    INDEX 01 01:00:06
  TRACK 30 AUDIO
    TITLE "7:cjc128_3650"
    INDEX 01 01:00:64
  TRACK 31 AUDIO
    TITLE "0:"
    INDEX 01 01:03:65
  TRACK 32 AUDIO
    TITLE "8:cjc128_3651"
    INDEX 01 01:07:53
  TRACK 33 AUDIO
    TITLE "0:"
    INDEX 01 01:09:05
  TRACK 34 AUDIO
    TITLE "7:cjc128_3652"
    INDEX 01 01:09:61
  TRACK 35 AUDIO
    TITLE "0:"
    INDEX 01 01:12:66
  TRACK 36 AUDIO
    TITLE "8:cjc128_3653"
    INDEX 01 01:16:36
  TRACK 37 AUDIO
    TITLE "0:"
    INDEX 01 01:18:21
  TRACK 38 AUDIO
    TITLE "7:cjc128_3654"
    INDEX 01 01:19:03
  TRACK 39 AUDIO
    TITLE "0:"
    INDEX 01 01:20:49
  TRACK 40 AUDIO
    TITLE "8:cjc128_3655"
    INDEX 01 01:22:60
  TRACK 41 AUDIO
    TITLE "0:"
    INDEX 01 01:24:41
  TRACK 42 AUDIO
    TITLE "7:cjc128_3656"
    INDEX 01 01:25:29
  TRACK 43 AUDIO
    TITLE "0:"
    INDEX 01 01:27:01
  TRACK 44 AUDIO
    TITLE "8:cjc128_3657"
    INDEX 01 01:29:11
  TRACK 45 AUDIO
    TITLE "0:"
    INDEX 01 01:30:69
  TRACK 46 AUDIO
    TITLE "7:cjc128_3658"
    INDEX 01 01:31:51
  TRACK 47 AUDIO
    TITLE "0:"
    INDEX 01 01:34:14
  TRACK 48 AUDIO
    TITLE "8:cjc128_3659"
    INDEX 01 01:37:24
  TRACK 49 AUDIO
    TITLE "0:"
    INDEX 01 01:39:08
  TRACK 50 AUDIO
    TITLE "7:cjc128_3660"
    INDEX 01 01:39:68
  TRACK 51 AUDIO
    TITLE "0:"
    INDEX 01 01:42:47
  TRACK 52 AUDIO
    TITLE "8:cjc128_3661"
    INDEX 01 01:46:02
  TRACK 53 AUDIO
    TITLE "0:"
    INDEX 01 01:47:66
  TRACK 54 AUDIO
    TITLE "7:cjc128_3662"
    INDEX 01 01:48:40
  TRACK 55 AUDIO
    TITLE "0:"
    INDEX 01 01:50:66
  TRACK 56 AUDIO
    TITLE "8:cjc128_3663"
    INDEX 01 01:53:67
  TRACK 57 AUDIO
    TITLE "0:"
    INDEX 01 01:55:48
  TRACK 58 AUDIO
    TITLE "7:cjc128_3664"
    INDEX 01 01:56:28
  TRACK 59 AUDIO
    TITLE "0:"
    INDEX 01 01:58:60
  TRACK 60 AUDIO
    TITLE "8:cjc128_3665"
    INDEX 01 02:01:48
  TRACK 61 AUDIO
    TITLE "0:"
    INDEX 01 02:03:26
  TRACK 62 AUDIO
    TITLE "7:cjc128_3666"
    INDEX 01 02:04:13
  TRACK 63 AUDIO
    TITLE "0:"
    INDEX 01 02:06:36
  TRACK 64 AUDIO
    TITLE "8:cjc128_3667"
    INDEX 01 02:09:32
  TRACK 65 AUDIO
    TITLE "0:"
    INDEX 01 02:11:02
  TRACK 66 AUDIO
    TITLE "7:cjc128_3668"
    INDEX 01 02:11:63
  TRACK 67 AUDIO
    TITLE "0:"
    INDEX 01 02:14:61
  TRACK 68 AUDIO
    TITLE "8:cjc128_3669"
    INDEX 01 02:18:39
  TRACK 69 AUDIO
    TITLE "0:"
    INDEX 01 02:20:20
  TRACK 70 AUDIO
    TITLE "7:cjc128_3670"
    INDEX 01 02:20:73
  TRACK 71 AUDIO
    TITLE "0:"
    INDEX 01 02:23:03
  TRACK 72 AUDIO
    TITLE "8:cjc128_3671"
    INDEX 01 02:25:61
  TRACK 73 AUDIO
    TITLE "0:"
    INDEX 01 02:27:30
  TRACK 74 AUDIO
    TITLE "7:cjc128_3672"
    INDEX 01 02:28:12
  TRACK 75 AUDIO
    TITLE "0:"
    INDEX 01 02:33:01
  TRACK 76 AUDIO
    TITLE "8:cjc128_3673"
    INDEX 01 02:38:26
  TRACK 77 AUDIO
    TITLE "0:"
    INDEX 01 02:40:00
  TRACK 78 AUDIO
    TITLE "7:cjc128_3674"
    INDEX 01 02:40:56
  TRACK 79 AUDIO
    TITLE "0:"
    INDEX 01 02:43:51
  TRACK 80 AUDIO
    TITLE "8:cjc128_3675"
    INDEX 01 02:47:49
  TRACK 81 AUDIO
    TITLE "0:"
    INDEX 01 02:49:24
  TRACK 82 AUDIO
    TITLE "7:cjc128_3676"
    INDEX 01 02:50:06
  TRACK 83 AUDIO
    TITLE "0:"
    INDEX 01 02:53:18
  TRACK 84 AUDIO
    TITLE "8:cjc128_3677"
    INDEX 01 02:57:27
  TRACK 85 AUDIO
    TITLE "0:"
    INDEX 01 02:59:22
  TRACK 86 AUDIO
    TITLE "7:cjc128_3678"
    INDEX 01 03:00:02
  TRACK 87 AUDIO
    TITLE "0:"
    INDEX 01 03:02:52
  TRACK 88 AUDIO
    TITLE "8:cjc128_3679"
    INDEX 01 03:05:56
  TRACK 89 AUDIO
    TITLE "0:"
    INDEX 01 03:07:53
  TRACK 90 AUDIO
    TITLE "7:cjc128_3680"
    INDEX 01 03:08:27
  TRACK 91 AUDIO
    TITLE "0:"
    INDEX 01 03:11:41
  TRACK 92 AUDIO
    TITLE "8:cjc128_3681"
    INDEX 01 03:15:43
  TRACK 93 AUDIO
    TITLE "0:"
    INDEX 01 03:17:40
  TRACK 94 AUDIO
    TITLE "7:cjc128_3682"
    INDEX 01 03:18:18
  TRACK 95 AUDIO
    TITLE "0:"
    INDEX 01 03:20:48
  TRACK 96 AUDIO
    TITLE "8:cjc128_3683"
    INDEX 01 03:23:44
  TRACK 97 AUDIO
    TITLE "0:"
    INDEX 01 03:25:41
  TRACK 98 AUDIO
    TITLE "7:cjc128_3684"
    INDEX 01 03:26:21
  TRACK 99 AUDIO
    TITLE "0:"
    INDEX 01 03:29:33
